<svg height="512pt" viewBox="-62 0 511 512" width="512pt" xmlns="http://www.w3.org/2000/svg"><path d="m90.246094 212.484375h-3.578125c-22.589844 0-40.90625-18.316406-40.90625-40.910156v-108.214844c0-23.582031 19.117187-42.699219 42.695312-42.699219 23.582031 0 42.699219 19.117188 42.699219 42.699219v108.214844c0 22.59375-18.316406 40.910156-40.910156 40.910156zm0 0" fill="#ffd0a6"/><path d="m94.859375 512v-47.59375c0-42.527344-13.980469-83.875-39.789063-117.675781l-24.992187-32.738281c-19.1875-25.128907-29.578125-55.867188-29.578125-87.484376 0-19.117187 1.804688-38.195312 5.386719-56.972656 1.027343-5.382812 2.054687-10.765625 3.078125-16.152344 3.820312-20.019531 22.414062-33.773437 42.664062-31.441406v-60.011718l314.488282 22.988281 21.222656 46.238281v110.65625c0 65.503906-25.828125 128.363281-71.878906 174.949219-6.894532 6.972656-10.761719 16.382812-10.761719 26.1875v69.050781" fill="#ffd0a6"/><g fill="#e8b182"><path d="m66.660156 171.574219v-108.214844c0-19.976563 13.71875-36.742187 32.246094-41.402344-3.34375-.84375-6.84375-1.292969-10.449219-1.292969-23.578125 0-42.695312 19.113282-42.695312 42.695313v108.214844c0 22.59375 18.3125 40.910156 40.90625 40.910156h3.578125c2.972656 0 5.871094-.324219 8.660156-.925781-18.429688-3.976563-32.246094-20.363282-32.246094-39.984375zm0 0"/><path d="m216.550781 78.222656v108.21875c0 21.578125-16.707031 39.246094-37.886719 40.800782-11.765624-9.546876-25.882812-16.296876-41.355468-19.234376-3.910156-6.257812-6.15625-13.648437-6.15625-21.566406v-108.21875c0-23.574218 19.121094-42.695312 42.707031-42.695312 11.785156 0 22.464844 4.773437 30.183594 12.507812 7.722656 7.730469 12.507812 18.398438 12.507812 30.1875zm0 0"/><path d="m261.035156 227.347656h-3.578125c-22.589843 0-40.90625-18.3125-40.90625-40.90625v-108.214844c0-23.582031 19.117188-42.699218 42.695313-42.699218 23.582031 0 42.699218 19.117187 42.699218 42.699218v108.214844c0 22.59375-18.316406 40.90625-40.910156 40.90625zm0 0"/><path d="m346.429688 215.050781h-3.574219c-22.59375 0-40.910157-18.316406-40.910157-40.910156v-71.125c0-23.578125 19.117188-42.695313 42.699219-42.695313 23.578125 0 42.695313 19.117188 42.695313 42.695313v71.125c0 22.59375-18.316406 40.910156-40.910156 40.910156zm0 0"/></g><path d="m216.546875 42.695312v108.21875c0 22.589844-18.308594 40.90625-40.910156 40.90625h-3.570313c-22.59375 0-40.910156-18.316406-40.910156-40.90625v-108.21875c0-23.574218 19.113281-42.695312 42.695312-42.695312 11.796876 0 22.464844 4.773438 30.1875 12.507812 7.730469 7.730469 12.507813 18.398438 12.507813 30.1875zm0 0" fill="#ffd0a6"/><path d="m152.054688 150.914062v-108.214843c0-19.976563 13.71875-36.742188 32.246093-41.40625-3.34375-.839844-6.839843-1.28906275-10.449219-1.28906275-23.578124 0-42.695312 19.11328175-42.695312 42.69531275v108.214843c0 22.59375 18.316406 40.910157 40.910156 40.910157h3.574219c2.972656 0 5.871094-.324219 8.660156-.929688-18.429687-3.972656-32.246093-20.359375-32.246093-39.980469zm0 0" fill="#e8b182"/><path d="m261.035156 191.820312h-3.578125c-22.589843 0-40.90625-18.3125-40.90625-40.90625v-108.214843c0-23.582031 19.117188-42.699219 42.695313-42.699219 23.582031 0 42.699218 19.117188 42.699218 42.699219v108.214843c0 22.59375-18.316406 40.90625-40.910156 40.90625zm0 0" fill="#ffd0a6"/><path d="m237.449219 150.914062v-108.214843c0-19.976563 13.71875-36.742188 32.25-41.40625-3.347657-.839844-6.84375-1.28906275-10.449219-1.28906275-23.582031 0-42.699219 19.11328175-42.699219 42.69531275v108.214843c0 22.59375 18.316407 40.910157 40.910157 40.910157h3.578124c2.972657 0 5.867188-.324219 8.660157-.929688-18.433594-3.972656-32.25-20.359375-32.25-39.980469zm0 0" fill="#e8b182"/><path d="m346.429688 179.523438h-3.574219c-22.59375 0-40.910157-18.316407-40.910157-40.910157v-71.121093c0-23.582032 19.117188-42.699219 42.699219-42.699219 23.578125 0 42.695313 19.117187 42.695313 42.699219v71.121093c0 22.59375-18.316406 40.910157-40.910156 40.910157zm0 0" fill="#ffd0a6"/><path d="m322.84375 138.613281v-71.121093c0-19.976563 13.71875-36.742188 32.246094-41.40625-3.34375-.839844-6.839844-1.292969-10.445313-1.292969-23.582031 0-42.699219 19.117187-42.699219 42.699219v71.121093c0 22.59375 18.316407 40.910157 40.910157 40.910157h3.574219c2.976562 0 5.871093-.324219 8.660156-.925782-18.429688-3.976562-32.246094-20.363281-32.246094-39.984375zm0 0" fill="#e8b182"/><path d="m216.546875 134.3125v16.601562c0 22.589844-18.308594 40.90625-40.910156 40.90625h-3.570313c-22.59375 0-40.910156-18.316406-40.910156-40.90625v-25.789062c17.292969-.101562 34.566406-1.117188 51.773438-3.058594 12.9375-1.453125 25.214843 3.414063 33.617187 12.246094zm0 0" fill="#e8b182"/><path d="m94.859375 512v-47.59375c0-42.527344-13.980469-83.875-39.789063-117.675781l-24.992187-32.738281c-19.1875-25.128907-29.578125-55.867188-29.578125-87.484376 0-19.117187 1.804688-38.195312 5.386719-56.972656 1.027343-5.382812 2.054687-10.765625 3.078125-16.152344 3.820312-20.019531 22.414062-33.773437 42.664062-31.441406 36.675782 4.21875 73.714844 4.261719 110.398438.125 20.878906-2.355468 40.042968 11.773438 43.980468 32.414063l.152344.796875c4.394532 23.03125-11.769531 44.882812-35.070312 47.507812-21.878906 2.464844-43.863282 3.65625-65.847656 3.574219" fill="#ffd0a6"/><path d="m100.003906 346.726562c25.808594 33.800782 39.792969 75.148438 39.792969 117.675782v47.59375h-44.933594v-47.59375c0-42.527344-13.980469-83.875-39.789062-117.675782l-24.992188-32.738281c-19.183593-25.128906-29.582031-55.871093-29.582031-87.476562 0-9.5625.449219-19.113281 1.347656-28.621094.898438-9.507813 2.257813-18.976563 4.042969-28.359375 1.023437-5.378906 2.050781-10.761719 3.082031-16.152344 3.816406-20.019531 22.414063-33.773437 42.652344-31.441406 8.851562 1.011719 17.734375 1.796875 26.617188 2.320312-12.226563 4.691407-21.734376 15.441407-24.335938 29.121094-1.035156 5.390625-2.058594 10.773438-3.085938 16.152344-3.582031 18.777344-5.390624 37.859375-5.390624 56.980469 0 15.808593 2.601562 31.386719 7.597656 46.171875 4.996094 14.777344 12.390625 28.734375 21.984375 41.304687zm0 0" fill="#e8b182"/><path d="m213.375 307.859375c-4.328125 0-7.835938-3.511719-7.835938-7.839844 0-26.003906-11.59375-50.3125-31.808593-66.6875-10.980469-8.914062-24.078125-15.003906-37.882813-17.625-5.265625-1.003906-10.695312-1.515625-16.136718-1.515625h-14.472657c-4.328125 0-7.835937-3.507812-7.835937-7.835937s3.507812-7.835938 7.835937-7.835938h14.472657c6.425781 0 12.839843.601563 19.066406 1.789063 16.335937 3.101562 31.839844 10.3125 44.824218 20.851562 23.902344 19.359375 37.609376 48.105469 37.609376 78.859375 0 4.328125-3.507813 7.839844-7.835938 7.839844zm0 0" fill="#e8b182"/></svg>