<svg id="Capa_1" enable-background="new 0 0 512 512" height="512" viewBox="0 0 512 512" width="512" xmlns="http://www.w3.org/2000/svg"><g><path d="m171.708 359.026h168.584v33.301h-168.584z" fill="#ecf4ff"/><path d="m317.398 359.026h22.894v33.301h-22.894z" fill="#cbe2ff"/><path d="m350.698 402.628v99.07c0 5.689-4.612 10.302-10.302 10.302h-168.793c-5.689 0-10.302-4.612-10.302-10.302v-99.07c0-5.689 4.612-10.302 10.302-10.302h168.793c5.69 0 10.302 4.613 10.302 10.302z" fill="#9dc6fb"/><path d="m350.698 402.628v99.07c0 5.689-4.612 10.302-10.302 10.302h-12.592v-119.674h12.592c5.69 0 10.302 4.613 10.302 10.302z" fill="#80b4fb"/><g><path d="m348.411 104.084c-13.025-.463-23.729 9.958-23.729 22.879v-72.296c0-12.414-9.653-22.987-22.059-23.428-13.025-.463-23.729 9.958-23.729 22.879v-30.671c0-12.414-9.653-22.987-22.059-23.428-13.025-.463-23.729 9.958-23.729 22.879v31.219c0-12.921-10.704-23.342-23.729-22.879-12.406.441-22.059 11.014-22.059 23.428v41.077c0-12.921-10.704-23.342-23.729-22.879-12.406.441-22.059 11.014-22.059 23.428v69.174 78.115c0 16.898 5.142 33.397 14.744 47.303l13.61 19.711c1.188 1.721 1.824 3.762 1.824 5.853v42.577h168.584v-42.577c0-2.091.636-4.133 1.824-5.853l13.61-19.711c9.602-13.906 14.744-30.404 14.744-47.303v-116.07c.001-12.413-9.653-22.986-22.059-23.427z" fill="#f1d0a5"/><path d="m370.473 127.509v116.069c0 16.905-5.141 33.398-14.742 47.306l-13.617 19.712c-1.189 1.721-1.826 3.763-1.826 5.855v42.579h-168.577v-42.579c0-2.092-.637-4.134-1.826-5.855l-13.617-19.712c-9.601-13.907-14.742-30.4-14.742-47.306v-147.283c0-12.414 9.653-22.994 22.066-23.426 2.905-.103 5.697.33 8.272 1.236 8.993 3.07 15.453 11.6 15.453 21.634v-41.068c0-12.374 9.588-22.934 21.952-23.428 2.943-.118 5.77.325 8.387 1.232 8.993 3.08 15.453 11.61 15.453 21.644v-31.224c0-12.918 10.703-23.344 23.725-22.88 2.308.082 4.522.515 6.603 1.246 9.066 3.204 15.453 12.084 15.453 22.19v30.669c0-12.918 10.704-23.344 23.735-22.88 12.403.443 22.056 11.012 22.056 23.426v72.297c0-12.918 10.703-23.344 23.725-22.88 12.414.443 22.067 11.012 22.067 23.426z" fill="#f1d0a5"/><path d="m334.063 249.265c-45.509 55.54-107.388 86.12-162.355 85.946v23.815h168.584v-42.577c0-2.091.636-4.133 1.824-5.853l13.61-19.711c9.602-13.906 14.744-30.404 14.744-47.303v-53.075c-8.992 20.237-21.139 40.125-36.407 58.758z" fill="#f1b986"/></g><circle cx="300.748" cy="447.48" fill="#f6e266" r="16.65"/><path d="m248.273 306.395c4.267 0 7.726-3.459 7.726-7.726v-34.959c0-11.36 5.643-21.904 15.095-28.206l50.146-33.431c2.149-1.433 3.441-3.845 3.441-6.429v-68.682-72.296c0-10.1-6.39-18.978-15.453-22.176v159.02l-46.706 31.138c-13.761 9.174-21.977 24.525-21.977 41.063v34.958c.001 4.267 3.461 7.726 7.728 7.726z" fill="#f1b986"/><g><path d="m278.89 23.451v145.141c0 4.265-3.451 7.726-7.726 7.726-4.265 0-7.726-3.461-7.726-7.726v-167.331c9.065 3.204 15.452 12.084 15.452 22.19z" fill="#f1b986"/></g><g><path d="m233.11 54.12v114.473c0 4.265-3.461 7.726-7.726 7.726-4.275 0-7.726-3.461-7.726-7.726v-136.117c8.992 3.08 15.452 11.61 15.452 21.644z" fill="#f1b986"/></g><g><path d="m187.318 95.738v72.854c0 4.265-3.461 7.726-7.726 7.726s-7.726-3.461-7.726-7.726v-94.487c8.993 3.07 15.452 11.6 15.452 21.633z" fill="#f1b986"/></g></g></svg>