<svg id="Capa_1" enable-background="new 0 0 512 512" height="512" viewBox="0 0 512 512" width="512" xmlns="http://www.w3.org/2000/svg"><g><circle cx="256" cy="256" fill="#ffc265" r="256"/><path d="m256 484.129c-136.709 0-248.381-107.161-255.619-242.064-.247 4.614-.381 9.259-.381 13.935 0 141.385 114.615 256 256 256s256-114.615 256-256c0-4.676-.134-9.321-.381-13.936-7.238 134.904-118.91 242.065-255.619 242.065z" fill="#ffb541"/><circle cx="256" cy="256" fill="#ffe9c8" r="214.493"/><path d="m256 442.622c-113.778 0-206.848-88.593-214.03-200.557-.296 4.609-.463 9.252-.463 13.936 0 118.461 96.032 214.493 214.493 214.493s214.493-96.033 214.493-214.494c0-4.683-.167-9.327-.463-13.936-7.182 111.965-100.252 200.558-214.03 200.558z" fill="#ffdca7"/><path d="m215.335 354.568 134.498-85.182c9.823-6.221 9.823-20.552 0-26.773l-134.498-85.182c-10.55-6.681-24.324.898-24.324 13.386v170.364c0 12.489 13.774 20.069 24.324 13.387z" fill="#ff4755"/><path d="m349.833 250.806-134.498 85.181c-10.55 6.682-24.324-.899-24.324-13.386v18.581c0 12.488 13.774 20.068 24.324 13.386l134.498-85.182c8.04-5.092 9.489-15.613 4.367-22.677-1.136 1.567-2.585 2.968-4.367 4.097z" fill="#fc2b3a"/></g></svg>