<svg height="512pt" viewBox="-42 0 512 512" width="512pt" xmlns="http://www.w3.org/2000/svg"><path d="m428.835938 297.582031c0 96.386719-63.601563 177.921875-151.132813 204.925781-19.996094 6.171876-41.253906 9.492188-63.285156 9.492188-5.15625 0-10.269531-.179688-15.332031-.546875-3.84375-.261719-7.667969-.640625-11.449219-1.113281-20.949219-2.601563-40.957031-8.234375-59.566407-16.445313-75.425781-33.21875-128.070312-108.609375-128.070312-196.3125 0-118.429687 95.996094-214.429687 214.417969-214.429687s214.417969 96 214.417969 214.429687zm0 0" fill="#937de2"/><path d="m214.417969 83.152344c-11.238281 0-22.273438.871094-33.046875 2.539062 102.730468 15.890625 181.371094 104.699219 181.371094 211.890625 0 96.386719-63.597657 177.925781-151.132813 204.925781-9.789063 3.023438-19.878906 5.355469-30.214844 6.957032 2.074219.316406 4.152344.617187 6.242188.878906 3.78125.472656 7.605469.847656 11.449219 1.109375 5.0625.367187 10.175781.546875 15.332031.546875 22.03125 0 43.289062-3.320312 63.285156-9.492188 87.53125-27 151.132813-108.539062 151.132813-204.925781 0-118.429687-95.996094-214.429687-214.417969-214.429687zm0 0" fill="#7570d6"/><path d="m234.191406 221.988281-.722656.128907-1.648438.28125-52.027343 8.898437-5.304688-35.226563-7.78125-51.699218-18.179687-120.878906c-1.585938-11.171876 6.113281-21.539063 17.277344-23.25 1.050781-.1562505 2.089843-.242188 3.121093-.242188 9.605469 0 18.136719 6.730469 20.140625 16.402344l38.929688 177.367187 5.902344 26.90625zm0 0" fill="#fdd7bd"/><path d="m333.972656 23.828125c0 1.386719-.136718 2.792969-.441406 4.203125l-41.011719 180.421875-8.621093 37.953125-53.726563-13.292969 3.296875-10.996093.429688-1.4375 8.078124-26.917969 52.644532-175.402344c2.941406-10.335937 13.507812-16.507813 23.957031-14.019531 9.1875 2.191406 15.394531 10.40625 15.394531 19.488281zm0 0" fill="#fdd7bd"/><g fill="#fac5aa"><path d="m292.519531 208.453125-8.621093 37.953125-53.726563-13.292969 3.296875-10.996093-53.675781 9.179687-5.304688-35.222656c3.382813-1.480469 7.121094-2.289063 11.050781-2.28125l42.457032-.019531 5.902344 26.90625 8.078124-26.917969h9.25c15.667969-.011719 30.046876 5.5 41.292969 14.691406zm0 0"/><path d="m283.898438 297.582031-4.367188 71.695313-80.445312 142.175781c-3.84375-.261719-7.667969-.640625-11.449219-1.113281-5.449219-.671875-10.824219-1.554688-16.128907-2.636719-15.125-3.066406-29.65625-7.726563-43.4375-13.808594v-32.386719c0-15.710937-4.347656-31.117187-12.570312-44.507812-3.582031-5.839844-6.4375-12.054688-8.507812-18.523438-2.078126-6.46875-3.371094-13.191406-3.851563-20.027343l-7.058594-100.503907-2.75-39.246093 71.308594-9.597657 54.945313-7.40625 14.230468-1.910156 1.226563 1.910156zm0 0"/><path d="m231.820312 222.398438-52.027343 8.894531-5.304688-35.222657-7.78125-51.699218c6.710938 1.25 12.960938 4.988281 17.277344 10.953125l44.558594 61.195312c1.355469 1.859375 2.445312 3.832031 3.277343 5.878907zm0 0"/></g><path d="m260.558594 292.613281-57.964844.03125c-.433594 13.023438-6.679688 25.710938-17.894531 33.808594-7.4375 5.375-16.207031 8.210937-25.363281 8.210937-13.820313 0-26.925782-6.667968-35.066407-17.832031l-28.1875-38.890625-2.75-39.246094 71.308594-9.597656 54.945313-7.402344 14.230468-1.914062 1.230469 1.914062zm0 0" fill="#fabaa1"/><path d="m314.5 286.953125v94.707031c0 8.148438-1.65625 16.121094-4.789062 23.472656-3.128907 7.351563-7.726563 14.070313-13.609376 19.722657-11.761718 11.289062-18.398437 26.882812-18.398437 43.183593v34.46875c-19.996094 6.171876-41.253906 9.492188-63.285156 9.492188-5.15625 0-10.269531-.179688-15.332031-.546875-3.84375-.261719-7.667969-.640625-11.449219-1.113281-3.035157-24.238282-6.144531-100.910156-.851563-121.925782 10.578125-41.964843 46.535156-62.421874 59.367188-68.566406 2.394531-1.144531 3.855468-3.632812 3.730468-6.28125l-1.40625-29.289062c-.203124-4.160156-3.636718-7.433594-7.804687-7.425782l-40.210937.042969-17.128907.019531c-15.21875-.050781-27.515625-12.390624-27.515625-27.609374v-.074219c.019532-7.960938 3.402344-15.121094 8.820313-20.132813.148437-.144531.296875-.273437.441406-.410156 4.894531-4.355469 11.355469-6.992188 18.421875-6.972656l36.085938-.019532h15.457031l14.144531-.011718c36.066406-.019532 65.3125 29.207031 65.3125 65.269531zm0 0" fill="#fdd7bd"/><path d="m212.007812 269.839844c-12.320312 8.902344-29.523437 6.164062-38.472656-6.125l-44.683594-61.359375c-8.925781-12.355469-6.144531-29.609375 6.210938-38.535157 12.351562-8.925781 29.605469-6.144531 38.53125 6.210938l44.5625 61.191406c8.996094 12.355469 6.238281 29.667969-6.148438 38.617188zm0 0" fill="#fce5d0"/><path d="m175.476562 313.683594c-12.324218 8.902344-29.523437 6.164062-38.46875-6.121094l-38.453124-53.054688c-8.925782-12.355468-6.144532-29.605468 6.210937-38.53125 12.351563-8.925781 29.605469-6.144531 38.53125 6.210938l38.328125 52.882812c8.996094 12.351563 6.238281 29.664063-6.148438 38.613282zm0 0" fill="#fce5d0"/><path d="m212.6875 236.714844c2.351562 3.019531 3.632812 6.519531 3.921875 10.046875.488281 6.289062-2.167969 12.6875-7.636719 16.707031-4.1875 3.078125-9.238281 4.171875-14.007812 3.445312-1.554688-.238281-3.070313-.664062-4.515625-1.28125-3.019531-1.273437-5.746094-3.351562-7.828125-6.183593l-7.285156-9.910157c-6.109376-8.308593-4.324219-20.007812 3.984374-26.117187 4.078126-3 8.980469-4.101563 13.636719-3.457031 4.660157.652344 9.082031 3.046875 12.183594 7.035156zm0 0" fill="#fff2ea"/><path d="m174.398438 279.988281c2.3125 3.042969 3.554687 6.558594 3.800781 10.089844.417969 6.292969-2.3125 12.664063-7.824219 16.617187-4.226562 3.03125-9.285156 4.066407-14.050781 3.285157-1.550781-.257813-3.058594-.699219-4.496094-1.335938-3.007813-1.304687-5.707031-3.414062-7.761719-6.273437l-7.167968-9.992188c-6.011719-8.378906-4.09375-20.058594 4.285156-26.070312 4.113281-2.949219 9.027344-3.996094 13.675781-3.296875 4.65625.703125 9.046875 3.148437 12.105469 7.175781zm0 0" fill="#fff2ea"/></svg>